HIERARCHY
ROOT root
{
	OFFSET 0.000000 0.000000 0.000000
	CHANNELS 6 Xposition Yposition Zposition Zrotation Yrotation Xrotation
	JOINT lhip
	{
		OFFSET 0.058581 -0.082280 -0.017664
		CHANNELS 3 Zrotation Yrotation Xrotation
		JOINT lknee
		{
			OFFSET 0.043451 -0.386469 0.008037
			CHANNELS 3 Zrotation Yrotation Xrotation
			JOINT lankle
			{
				OFFSET -0.014790 -0.426874 -0.037428
				CHANNELS 3 Zrotation Yrotation Xrotation
				JOINT ltoe
				{
					OFFSET 0.041054 -0.060286 0.122042
					CHANNELS 3 Zrotation Yrotation Xrotation
					End Site
					{
						OFFSET 0.000000 0.000000 0.000000
					}
				}
			}
		}
	}
	JOINT rhip
	{
		OFFSET -0.060310 -0.090513 -0.013543
		CHANNELS 3 Zrotation Yrotation Xrotation
		JOINT rknee
		{
			OFFSET -0.043257 -0.383688 -0.004843
			CHANNELS 3 Zrotation Yrotation Xrotation
			JOINT rankle
			{
				OFFSET 0.019056 -0.420046 -0.034562
				CHANNELS 3 Zrotation Yrotation Xrotation
				JOINT rtoe
				{
					OFFSET -0.034840 -0.062106 0.130323
					CHANNELS 3 Zrotation Yrotation Xrotation
					End Site
					{
						OFFSET 0.000000 0.000000 0.000000
					}
				}
			}
		}
	}
	JOINT lowerback
	{
		OFFSET 0.004439 0.124404 -0.038385
		CHANNELS 3 Zrotation Yrotation Xrotation
		JOINT upperback
		{
			OFFSET 0.004488 0.137956 0.026820
			CHANNELS 3 Zrotation Yrotation Xrotation
			JOINT chest
			{
				OFFSET -0.002265 0.056032 0.002855
				CHANNELS 3 Zrotation Yrotation Xrotation
				JOINT lowerneck
				{
					OFFSET -0.013390 0.211636 -0.033468
					CHANNELS 3 Zrotation Yrotation Xrotation
					JOINT upperneck
					{
						OFFSET 0.010113 0.088937 0.050410
						CHANNELS 3 Zrotation Yrotation Xrotation
						End Site
						{
							OFFSET 0.000000 0.000000 0.000000
						}
					}
				}
				JOINT lclavicle
				{
					OFFSET 0.071702 0.114000 -0.018898
					CHANNELS 3 Zrotation Yrotation Xrotation
					JOINT lshoulder
					{
						OFFSET 0.122921 0.045205 -0.019046
						CHANNELS 3 Zrotation Yrotation Xrotation
						JOINT lelbow
						{
							OFFSET 0.255332 -0.015649 -0.022946
							CHANNELS 3 Zrotation Yrotation Xrotation
							JOINT lwrist
							{
								OFFSET 0.265709 0.012698 -0.007375
								CHANNELS 3 Zrotation Yrotation Xrotation
								End Site
								{
									OFFSET 0.000000 0.000000 0.000000
								}
							}
						}
					}
				}
				JOINT rclavicle
				{
					OFFSET -0.082954 0.112472 -0.023707
					CHANNELS 3 Zrotation Yrotation Xrotation
					JOINT rshoulder
					{
						OFFSET -0.113228 0.046853 -0.008472
						CHANNELS 3 Zrotation Yrotation Xrotation
						JOINT relbow
						{
							OFFSET -0.260127 -0.014369 -0.031269
							CHANNELS 3 Zrotation Yrotation Xrotation
							JOINT rwrist
							{
								OFFSET -0.269108 0.006794 -0.006027
								CHANNELS 3 Zrotation Yrotation Xrotation
								End Site
								{
									OFFSET 0.000000 0.000000 0.000000
								}
							}
						}
					}
				}
			}
		}
	}
}
MOTION
Frames: 5
Frame Time: 0.033333
-1.604642 0.271715 0.987880 90.081283 -2.860437 82.547195 -5.041851 -1.651747 -6.846711 -5.911397 -7.319326 15.150431 9.281495 8.472381 -5.362065 0.000000 -0.000000 0.000000 -2.591658 -2.909345 -4.525513 -1.047598 0.637010 59.631763 3.195825 -11.761055 6.281237 0.000000 -0.000000 0.000000 -1.922568 1.750282 14.724227 0.937130 0.880559 -4.522073 -1.354814 -0.638092 2.383413 2.892054 1.144493 -6.914305 -3.838814 0.313183 12.611074 -31.754459 6.001268 -0.699399 -51.218552 -4.493517 7.562685 6.583152 -24.735130 6.700127 -5.242072 -0.628080 -3.334131 33.249154 0.541831 -2.144916 49.214347 8.311001 15.120245 -12.222899 19.554070 -13.403553 6.146638 1.456398 -2.245873 
-1.567836 0.274579 0.993532 91.575387 -2.269418 81.892564 -4.914332 -0.802503 -2.628730 -5.771730 -9.943642 13.253137 9.163579 8.906014 -6.402645 0.000000 -0.000000 0.000000 -2.247855 -2.103677 -8.428164 -1.548606 -1.938871 61.227206 3.695796 -13.527487 2.556051 0.000000 -0.000000 0.000000 -1.970488 -0.111687 15.474232 1.163694 1.039507 -4.605301 -1.214495 -0.920016 2.204809 3.034654 1.836396 -5.883588 -3.805070 0.318146 12.291316 -31.067174 5.403298 -0.166858 -51.099459 -5.823898 7.543191 7.133515 -25.187812 6.153566 -5.763167 -0.439601 -3.525809 32.899739 0.363723 -1.996534 50.678955 6.846451 14.960595 -12.630296 18.248463 -13.425514 7.800794 0.264197 -3.614468 
-1.530661 0.276552 0.997154 93.075800 -1.635814 81.512486 -4.325839 0.286448 1.231690 -5.648857 -12.275752 11.364578 9.067635 8.793822 -7.573893 0.000000 -0.000000 0.000000 -2.098248 -2.148821 -12.033946 -0.589346 -3.450128 60.365294 3.258073 -12.643805 -0.325058 0.000000 -0.000000 0.000000 -1.785314 -1.277153 15.456241 1.491760 0.742025 -4.197806 -1.039165 -1.522310 1.872221 2.958678 2.393296 -4.621551 -3.713744 0.179615 12.096357 -30.510335 4.548326 0.340512 -50.909271 -6.754667 7.492477 7.531634 -26.161384 5.386969 -5.663701 -0.284446 -3.664226 32.714072 0.197388 -1.418161 51.485116 5.596360 14.376132 -12.690311 17.804740 -13.112536 8.359793 -0.100002 -4.336665 
-1.486148 0.279220 0.998648 94.758364 -0.848707 81.208811 -3.171018 1.902620 5.293462 -5.514281 -14.738228 9.649920 8.070579 8.183420 -9.153917 0.000000 -0.000000 0.000000 -2.058586 -2.245307 -15.854685 -0.454631 -5.468503 55.454753 4.643596 -12.253699 -4.532872 0.000000 -0.000000 0.000000 -1.381535 -2.894913 16.139989 1.658910 0.416168 -4.329821 -0.730180 -2.146292 2.014790 2.960171 3.507528 -5.070059 -4.014095 -0.277065 12.236695 -30.035544 4.248759 -0.168119 -50.485494 -8.040399 7.481575 7.289253 -27.768822 5.131771 -4.163896 -0.517428 -3.725977 32.951121 -0.539061 -1.638784 51.711050 4.335700 14.149504 -12.775289 19.075953 -12.506924 7.331555 0.742167 -3.929117 
-1.458772 0.280313 0.997795 95.566069 -0.450153 81.106727 -2.449875 2.442049 7.682198 -5.444659 -16.036148 8.665438 7.576523 7.979053 -10.166276 0.000000 -0.000000 0.000000 -2.108174 -2.392708 -17.372054 -0.179788 -6.539267 50.419542 5.594921 -11.893911 -5.430821 0.000000 -0.000000 0.000000 -1.123521 -3.620343 16.965553 1.603154 0.311310 -4.888675 -0.471350 -2.655644 2.155559 2.761511 4.206603 -6.123202 -4.021014 -0.235954 12.375994 -29.902316 4.573872 -0.920838 -50.122660 -9.093616 7.509716 6.989861 -28.864478 5.333854 -3.106655 -1.109453 -2.857994 33.165667 -1.354837 -2.398441 51.490918 3.543647 14.293114 -12.109216 19.497822 -11.591632 7.111802 0.820006 -3.061788 
